<?xml version="1.0" encoding="iso-8859-1"?>
<!-- Uploaded to: SVG Repo, www.svgrepo.com, Generator: SVG Repo Mixer Tools -->
<svg height="800px" width="800px" version="1.1" id="Layer_1" xmlns="http://www.w3.org/2000/svg" xmlns:xlink="http://www.w3.org/1999/xlink" 
	 viewBox="0 0 511.996 511.996" xml:space="preserve">
<g>
	<path style="fill:#F4B2B0;" d="M256.127,205.258v-0.888l-0.257,0.385L256.127,205.258z"/>
	<path style="fill:#F4B2B0;" d="M255.999,164.808c5.829-8.892,12.581-17.355,19.982-25.363
		c-5.017-73.445-19.982-124.916-19.982-124.916s-14.995,51.2-19.982,124.914C243.418,147.452,250.167,155.916,255.999,164.808z"/>
	<path style="fill:#F4B2B0;" d="M427.52,42.929c0,0-167.923,62.014-190.86,166.299h53.946
		C292.724,173.815,322.401,113.239,427.52,42.929z"/>
</g>
<path style="fill:#B3404A;" d="M440.463,36.327c-3.345-6.56-11.067-9.579-17.977-7.028c-4.659,1.72-77.617,29.171-134.736,78.647
	c-6.317-57.468-17.26-95.621-17.799-97.474C268.148,4.273,262.47,0.006,256.014,0c-0.004,0-0.009,0-0.015,0
	c-6.449,0-12.13,4.254-13.943,10.445c-0.54,1.844-11.521,39.854-17.827,97.495C167.114,58.468,94.169,31.019,89.51,29.299
	c-6.909-2.553-14.632,0.469-17.977,7.028c-3.346,6.56-1.255,14.584,4.866,18.677c52.868,35.361,91.982,72.407,113.11,107.132
	c4.171,6.856,13.109,9.031,19.964,4.86c6.855-4.171,9.031-13.108,4.86-19.964c-4.646-7.638-9.963-15.283-15.94-22.93
	c9.181,7.446,17.958,15.452,25.94,23.967c0.315,0.426,0.649,0.84,1.013,1.232c4.866,5.267,9.307,10.629,13.291,16.018
	c-6.38,11.054-11.444,22.725-14.744,35.003c-0.038,0.084-0.084,0.161-0.121,0.246l-21.143,49.076
	c-0.895,2.078-2.484,3.792-4.475,4.827c-44.873,23.323-71.275,71.034-67.265,121.547c2.403,30.248,16.057,58.717,38.45,80.165
	c12.133,11.622,26.234,20.575,41.428,26.544l-1.431,1.431c-5.674,5.674-5.675,14.873,0,20.547c2.838,2.837,6.555,4.255,10.273,4.255
	c3.718,0,7.437-1.419,10.273-4.255l11.585-11.585v4.347c0,8.024,6.505,14.529,14.529,14.529s14.529-6.505,14.529-14.529v-4.347
	l11.585,11.585c2.838,2.837,6.555,4.255,10.273,4.255s7.437-1.419,10.273-4.255c5.674-5.674,5.674-14.873,0-20.547l-1.277-1.277
	c15.299-5.928,29.426-14.878,41.639-26.63c24.823-23.887,38.493-56.011,38.493-90.453c0-50.173-29.814-95.412-75.955-115.253
	c-7.369-3.17-15.917,0.237-19.087,7.607c-3.17,7.372,0.237,15.917,7.607,19.087c35.461,15.25,58.375,50.01,58.375,88.559
	c0,26.469-10.506,51.157-29.582,69.515c-17.972,17.295-41.3,26.761-66.148,26.932c-0.243-0.012-0.481-0.036-0.726-0.036
	c-0.139,0-0.275,0.017-0.414,0.02c-1.133-0.006-2.267-0.003-3.406-0.047c-47.975-1.844-88.528-40.702-92.322-88.466
	c-3.086-38.849,17.208-75.536,51.698-93.464c7.915-4.116,14.222-10.903,17.76-19.113l16.107-37.389h45.181
	c7.687,0,14.045-5.989,14.503-13.662c0.62-10.371,4.959-32.259,27.04-62.331c22.564-30.729,57.369-61.937,103.449-92.759
	C441.717,50.911,443.808,42.887,440.463,36.327z M280.562,114.374c0.032-0.029,0.064-0.06,0.096-0.089
	C280.626,114.314,280.594,114.345,280.562,114.374z M255.987,88.41c1.974,13.813,3.767,29.25,5.053,45.92
	c-0.153,0.174-0.292,0.352-0.443,0.525c-1.56,1.796-3.103,3.606-4.601,5.444l0,0c-0.266-0.327-0.555-0.649-0.824-0.976
	c-1.251-1.518-2.518-3.026-3.812-4.516c-0.139-0.16-0.269-0.324-0.408-0.484C252.227,117.659,254.016,102.217,255.987,88.41z
	 M308.726,130.565c-19.136,26.061-27.46,47.885-30.785,64.132h-21.529l57.125-70.476
	C311.883,126.335,310.279,128.452,308.726,130.565z"/>
</svg>